<?xml version="1.0" encoding="UTF-8" standalone="no"?>
<!-- Created with Inkscape (http://www.inkscape.org/) -->

<svg
   width="230mm"
   height="100mm"
   viewBox="0 0 230 100"
   version="1.1"
   id="svg1"
   inkscape:version="1.3.2 (091e20ef0f, 2023-11-25, custom)"
   sodipodi:docname="drawing.svg"
   xml:space="preserve"
   inkscape:export-filename="../../../pythonProjects/NeuralNetwork/docs/logo.svg"
   inkscape:export-xdpi="96"
   inkscape:export-ydpi="96"
   xmlns:inkscape="http://www.inkscape.org/namespaces/inkscape"
   xmlns:sodipodi="http://sodipodi.sourceforge.net/DTD/sodipodi-0.dtd"
   xmlns:xlink="http://www.w3.org/1999/xlink"
   xmlns="http://www.w3.org/2000/svg"
   xmlns:svg="http://www.w3.org/2000/svg"><sodipodi:namedview
     id="namedview1"
     pagecolor="#505050"
     bordercolor="#ffffff"
     borderopacity="1"
     inkscape:showpageshadow="0"
     inkscape:pageopacity="0"
     inkscape:pagecheckerboard="1"
     inkscape:deskcolor="#505050"
     inkscape:document-units="mm"
     inkscape:zoom="0.77693496"
     inkscape:cx="435.68641"
     inkscape:cy="261.28313"
     inkscape:window-width="1373"
     inkscape:window-height="918"
     inkscape:window-x="0"
     inkscape:window-y="0"
     inkscape:window-maximized="0"
     inkscape:current-layer="layer1" /><defs
     id="defs1"><linearGradient
       id="linearGradient23"
       inkscape:collect="always"><stop
         style="stop-color:#990036;stop-opacity:1;"
         offset="0.05580698"
         id="stop23" /><stop
         style="stop-color:#00003f;stop-opacity:1;"
         offset="0.92530489"
         id="stop24" /></linearGradient><linearGradient
       inkscape:collect="always"
       xlink:href="#linearGradient23"
       id="linearGradient24"
       x1="17.215019"
       y1="29.333637"
       x2="62.699017"
       y2="78.319786"
       gradientUnits="userSpaceOnUse"
       gradientTransform="matrix(1.0642833,0,0,1.0346734,1.5889308,-5.2556781)" /></defs><g
     inkscape:label="Layer 1"
     inkscape:groupmode="layer"
     id="layer1"><rect
       style="fill:#ffffff;fill-opacity:1;stroke:#000000;stroke-width:0;stroke-linecap:square;stroke-dasharray:none;stroke-opacity:1;paint-order:markers stroke fill"
       id="rect24"
       width="230"
       height="100"
       x="0"
       y="0" /><g
       id="g25"
       transform="translate(12.626167,7.4999953)"><path
         id="path23"
         style="fill:url(#linearGradient24);fill-opacity:1;stroke:none;stroke-width:0;stroke-dasharray:none"
         d="m 24.906036,9.195715 c -0.05961,0 -0.108346,11.479329 -0.108346,25.509693 V 60.2151 l 3.315851,-3.208094 3.315301,-3.208628 V 39.375857 c 0,-7.932351 0.120458,-14.42252 0.268392,-14.42252 0.147717,0 1.602654,1.290376 3.232804,2.866967 l 2.963862,2.866431 2.285181,-2.241388 2.284632,-2.241388 -8.72494,-8.504122 C 28.940045,13.022595 24.965646,9.195715 24.906036,9.195715 Z M 67.990655,9.251318 C 67.838716,9.281883 60.959191,15.935467 52.702759,24.037422 L 37.690956,38.768458 v 4.46139 4.461388 L 49.389658,36.322287 c 6.434099,-6.252805 11.821498,-11.36895 11.972043,-11.36895 0.150979,0 0.274443,3.90482 0.274443,8.677359 v 8.677359 l 3.315301,-3.208094 3.315851,-3.208093 V 22.543524 c 0,-7.341431 -0.124792,-13.322652 -0.276641,-13.2922016 z M 55.741969,38.743324 43.677527,50.474253 31.612536,62.205184 l 6.999642,6.797415 c 3.849599,3.738334 7.16393,6.79859 7.365381,6.801694 0.201366,0.0026 5.29908,-4.788883 11.328013,-10.647663 L 68.267296,54.504154 V 49.848675 45.192662 L 57.116927,56.027998 45.966559,66.86387 l -2.36108,-2.316244 -2.361629,-2.316778 1.658201,-1.71633 c 0.911972,-0.944245 4.173796,-4.194567 7.248784,-7.222489 l 5.591134,-5.505088 v -4.521809 z" /><text
         xml:space="preserve"
         style="font-size:36.7281px;line-height:0px;font-family:'Zona Pro';-inkscape-font-specification:'Zona Pro';text-align:center;letter-spacing:4.1647px;word-spacing:0px;text-anchor:middle;fill:#000000;stroke:#000000;stroke-width:2.09875;stroke-linecap:square;stroke-dasharray:none;stroke-opacity:1;paint-order:markers stroke fill"
         x="134.63849"
         y="56.16053"
         id="text23"
         transform="scale(1.0142079,0.98599114)"><tspan
           sodipodi:role="line"
           id="tspan23"
           x="136.72084"
           y="56.16053"
           style="font-size:36.7281px;letter-spacing:4.1647px;fill:#000000;stroke:#000000;stroke-width:2.09875;stroke-dasharray:none;stroke-opacity:1">MLZ</tspan></text></g></g></svg>
